<?xml version="1.0" encoding="utf-8"?>
<!-- Generator: Adobe Illustrator 21.0.0, SVG Export Plug-In . SVG Version: 6.00 Build 0)  -->
<svg version="1.1" id="_x31__x2C_5" xmlns="http://www.w3.org/2000/svg" xmlns:xlink="http://www.w3.org/1999/xlink" x="0px"
	 y="0px" viewBox="0 0 362.7 517" style="enable-background:new 0 0 362.7 517;" xml:space="preserve">
<style type="text/css">
	.st0{fill:#2387AA;}
</style>
<path class="st0" d="M181.3,448c-1,0-2-0.1-3.1-0.3C176.5,447.4,0,410.9,0,211.8V80c0-6.6,4.1-12.5,10.2-14.9l165.3-64
	c3.7-1.4,7.8-1.4,11.5,0l165.3,64c6.2,2.4,10.2,8.3,10.2,14.9v131.8c0,199.1-176.5,235.5-178.3,235.9
	C183.4,447.9,182.4,448,181.3,448z M32,91v120.9c0,161.3,127.1,198.5,149.3,203.8c22.1-5.4,149.4-43.1,149.4-203.8V91L181.3,33.2
	L32,91z"/>
</svg>
