<?xml version="1.0" encoding="utf-8"?>
<!-- Generator: Adobe Illustrator 21.0.0, SVG Export Plug-In . SVG Version: 6.00 Build 0)  -->
<svg version="1.1" id="Capa_1" xmlns="http://www.w3.org/2000/svg" xmlns:xlink="http://www.w3.org/1999/xlink" x="0px" y="0px"
	 viewBox="0 0 303.9 303.9" style="enable-background:new 0 0 303.9 303.9;" xml:space="preserve">
<style type="text/css">
	.st0{fill:#2387AA;}
</style>
<g>
	<g>
		<path class="st0" d="M4.9,105.7l143.9,61.6c1,0.4,2.1,0.7,3.2,0.7s2.2-0.2,3.2-0.7L299,105.7c3-1.3,5-4.3,4.9-7.6
			c-0.1-3.3-2.1-6.2-5.2-7.4L154.8,36c-1.9-0.7-3.9-0.7-5.8,0L5.2,90.7c-3.1,1.2-5.2,4.1-5.2,7.4C-0.1,101.4,1.9,104.4,4.9,105.7z
			 M152,52.2l122.2,46.5L152,151L29.7,98.7L152,52.2z"/>
		<path class="st0" d="M4.9,140.7l147,62.9l147-62.9c4.1-1.8,6-6.5,4.3-10.6c-1.8-4.1-6.5-6-10.6-4.3L152,186.1L11.3,125.8
			c-4.1-1.8-8.9,0.2-10.6,4.3C-1.1,134.2,0.8,139,4.9,140.7z"/>
		<path class="st0" d="M4.9,173.1l147,62.9l147-62.9c4.1-1.8,6-6.5,4.3-10.6c-1.8-4.1-6.5-6-10.6-4.3L152,218.5L11.3,158.2
			c-4.1-1.8-8.9,0.2-10.6,4.3C-1.1,166.6,0.8,171.4,4.9,173.1z"/>
		<path class="st0" d="M4.9,205.5l147,62.9l147-62.9c4.1-1.8,6-6.5,4.3-10.6c-1.8-4.1-6.5-6-10.6-4.3L152,250.9L11.3,190.6
			c-4.1-1.8-8.9,0.2-10.6,4.3C-1.1,199,0.8,203.8,4.9,205.5z"/>
	</g>
</g>
</svg>
