<?xml version="1.0" encoding="utf-8"?>
<!-- Generator: Adobe Illustrator 21.0.0, SVG Export Plug-In . SVG Version: 6.00 Build 0)  -->
<svg version="1.1" id="Capa_1" xmlns="http://www.w3.org/2000/svg" xmlns:xlink="http://www.w3.org/1999/xlink" x="0px" y="0px"
	 viewBox="0 0 512 512" style="enable-background:new 0 0 512 512;" xml:space="preserve">
<style type="text/css">
	.st0{fill:#788791;}
</style>
<g id="Cloud_1_">
	<g>
		<path class="st0" d="M421,406H91c-24.1,0-46.8-11.1-64-31.3C9.6,354.5,0,327.4,0,298.9s9.6-55.6,27-75.8
			c13.6-16,30.7-26.2,49.1-29.8c0-0.5,0-1,0-1.4C76.1,113,129.9,49,196.1,49c24.5,0,48.1,8.8,68.2,25.5c14.1,11.7,25.9,26.7,34.6,44
			c14.1-10.4,30.3-16,47.2-16c44.9,0,82.2,39.3,88.9,90.6c18.8,3.5,36.2,13.8,50.1,30c17.4,20.4,27,47.3,27,75.8s-9.6,55.6-27,75.8
			C467.8,394.9,445,406,421,406z M96,227.4c-33.6,0-61,32-61,71.4s22.4,66.4,56,66.4h330c33.6,0,56-27,56-66.4s-27.4-66.4-61-66.4
			h-15v-17.9c0-39.4-21.9-71.4-55-71.4c-15.8,0-30.7,7.3-42,20.5l-16.1,18.9l-8.3-25c-13.7-41.3-46.5-67.9-83.5-67.9
			c-49.6,0-85,43.1-85,102.1c0,4.2,0.6,8.7,1.1,13.6l2.7,22.1H96V227.4z"/>
	</g>
</g>
</svg>
