<?xml version="1.0" encoding="utf-8"?>
<!-- Generator: Adobe Illustrator 21.0.0, SVG Export Plug-In . SVG Version: 6.00 Build 0)  -->
<svg version="1.1" id="Layer_1" xmlns="http://www.w3.org/2000/svg" xmlns:xlink="http://www.w3.org/1999/xlink" x="0px" y="0px"
	 viewBox="0 0 492 492" style="enable-background:new 0 0 492 492;" xml:space="preserve">
<g>
	<g>
		<path d="M298,246.1L482.1,62c5.1-5,7.9-11.8,7.9-19s-2.8-13.9-7.9-19L465.9,7.9c-5-5.1-11.8-7.9-19-7.9c-7.2,0-13.9,2.8-19,7.9
			l-219,219.2c-5,5.1-7.8,11.9-7.8,19.1c-0.1,7.2,2.7,14,7.8,19.1l218.9,218.9c5,5.1,11.8,7.9,19,7.9c7.2,0,13.9-2.8,19-7.9
			l16.1-16.1c10.5-10.5,10.5-27.6,0-38.1L298,246.1z"/>
	</g>
</g>
<path d="M59.4,490h43c6.6,0,12-5.4,12-12V10c0-6.6-5.4-12-12-12h-43c-6.6,0-12,5.4-12,12v468C47.4,484.6,52.8,490,59.4,490z"/>
</svg>
