<?xml version="1.0" encoding="utf-8"?>
<!-- Generator: Adobe Illustrator 21.0.0, SVG Export Plug-In . SVG Version: 6.00 Build 0)  -->
<svg version="1.1" id="Layer_1" xmlns="http://www.w3.org/2000/svg" xmlns:xlink="http://www.w3.org/1999/xlink" x="0px" y="0px"
	 viewBox="0 0 492 492" style="enable-background:new 0 0 492 492;" xml:space="preserve">
<g>
	<g>
		<path d="M9.5,430C-1,440.5-1,457.6,9.5,468.1l16.1,16.1c5.1,5.1,11.8,7.9,19,7.9c7.2,0,14-2.8,19-7.9l218.9-218.9
			c5.1-5.1,7.9-11.9,7.8-19.1c0-7.2-2.8-14-7.8-19.1L63.5,7.9C58.4,2.8,51.7,0,44.5,0s-14,2.8-19,7.9L9.3,24
			c-5.1,5.1-7.9,11.8-7.9,19s2.8,14,7.9,19l184.1,184.1L9.5,430z"/>
	</g>
</g>
<path d="M432,490h-43c-6.6,0-12-5.4-12-12V10c0-6.6,5.4-12,12-12h43c6.6,0,12,5.4,12,12v468C444,484.6,438.6,490,432,490z"/>
</svg>
